<svg width="33" height="33" viewBox="0 0 33 33" fill="none" xmlns="http://www.w3.org/2000/svg">
<path d="M31.875 17.8496C31.6063 20.7575 30.5149 23.5288 28.7287 25.8391C26.9424 28.1494 24.5351 29.9032 21.7885 30.8953C19.0419 31.8874 16.0695 32.0768 13.2192 31.4412C10.3688 30.8057 7.75846 29.3715 5.69348 27.3065C3.6285 25.2416 2.19433 22.6312 1.55877 19.7809C0.923219 16.9305 1.11257 13.9581 2.10468 11.2115C3.09678 8.46487 4.8506 6.05758 7.16092 4.27133C9.47124 2.48507 12.2425 1.39373 15.1504 1.125C13.4479 3.42829 12.6287 6.26614 12.8417 9.12242C13.0547 11.9787 14.2858 14.6636 16.3111 16.6889C18.3364 18.7142 21.0213 19.9453 23.8776 20.1583C26.7339 20.3713 29.5717 19.5521 31.875 17.8496V17.8496Z" stroke="white" stroke-width="2" stroke-linecap="round" stroke-linejoin="round"/>
</svg>
